SplineFontDB: 3.0
FontName: Renner-it-ThinItalic
FullName: Renner* Thin Italic
FamilyName: Renner* Thin
Weight: Thin
Copyright: This typeface is licensed under the SIL open font license.
UComments: "2016-6-10: Created with FontForge (http://fontforge.org)"
Version: 002.200
ItalicAngle: -10
UnderlinePosition: -100
UnderlineWidth: 50
Ascent: 800
Descent: 200
InvalidEm: 0
LayerCount: 2
Layer: 0 0 "Back" 1
Layer: 1 0 "Fore" 0
XUID: [1021 31 -699969567 16188444]
FSType: 0
OS2Version: 0
OS2_WeightWidthSlopeOnly: 0
OS2_UseTypoMetrics: 1
CreationTime: 1465610489
ModificationTime: 1514241164
PfmFamily: 33
TTFWeight: 200
TTFWidth: 5
LineGap: 100
VLineGap: 0
OS2TypoAscent: 800
OS2TypoAOffset: 0
OS2TypoDescent: -200
OS2TypoDOffset: 0
OS2TypoLinegap: 100
OS2WinAscent: 900
OS2WinAOffset: 0
OS2WinDescent: 300
OS2WinDOffset: 0
HheadAscent: 900
HheadAOffset: 0
HheadDescent: -200
HheadDOffset: 0
OS2CapHeight: 700
OS2XHeight: 460
OS2Vendor: 'PfEd'
Lookup: 1 0 0 "alt a" { "less simple a"  } ['ss01' ('DFLT' <'dflt' > 'latn' <'dflt' > ) ]
Lookup: 258 0 0 "Lets get our kern on" { "kernin like nobodys business" [150,0,4] } ['kern' ('DFLT' <'dflt' > 'latn' <'dflt' > ) ]
MarkAttachClasses: 1
DEI: 91125
KernClass2: 15 14 "kernin like nobodys business"
 3 A L
 7 D G O Q
 5 F P Y
 5 K X Z
 1 T
 1 U
 3 V W
 9 a c g q s
 7 b e o p
 7 d i j l
 3 f t
 5 h m n
 5 k x z
 7 r v w y
 1 A
 7 C G O Q
 1 T
 1 U
 5 V W Y
 3 X Z
 11 a m n p r s
 11 b h i j k l
 11 c d e g o q
 3 f t
 7 u v w y
 3 x z
 12 period comma

StartChar: H
Encoding: 72 72 0
Width: 685
VWidth: 0
Flags: HMW
LayerCount: 2
Fore
SplineSet
175 356 m 1
 180 387 l 5
 655 387 l 5
 650 356 l 1
 175 356 l 1
688 700 m 1
 718 700 l 1
 595 0 l 1
 565 0 l 1
 688 700 l 1
213 700 m 1
 243 700 l 1
 120 0 l 1
 90 0 l 1
 213 700 l 1
EndSplineSet
EndChar

StartChar: O
Encoding: 79 79 1
Width: 774
VWidth: 0
Flags: HMW
LayerCount: 2
Fore
SplineSet
135 290 m 4
 135 142 229 21 397 21 c 4
 585 21 759 182 759 410 c 4
 759 558 665 679 497 679 c 4
 309 679 135 518 135 290 c 4
105 290 m 4
 105 539 293 708 497 708 c 4
 681 708 789 579 789 410 c 4
 789 161 601 -8 397 -8 c 4
 213 -8 105 121 105 290 c 4
EndSplineSet
EndChar

StartChar: I
Encoding: 73 73 2
Width: 200
VWidth: 0
Flags: HMW
LayerCount: 2
Fore
SplineSet
208 700 m 1
 238 700 l 5
 115 0 l 5
 85 0 l 1
 208 700 l 1
EndSplineSet
EndChar

StartChar: C
Encoding: 67 67 3
Width: 685
VWidth: 0
Flags: HMW
LayerCount: 2
Fore
SplineSet
140 300 m 4
 140 146.9375 226 22 380 22 c 0
 479 22 563 66 626 118 c 1
 618 72 l 1
 550 20 481 -8 379 -8 c 0
 205 -8 107 127.884765625 107 300 c 0
 107 529 291 708 505 708 c 4
 607 708 666 680 716 628 c 1
 708 585 l 1
 663 637 604 678 505 678 c 4
 314 678 140 516 140 300 c 4
EndSplineSet
EndChar

StartChar: E
Encoding: 69 69 4
Width: 530
VWidth: 0
Flags: HMW
LayerCount: 2
Fore
SplineSet
112 0 m 5
 117 29 l 5
 455 29 l 5
 450 0 l 5
 112 0 l 5
230 671 m 5
 235 700 l 5
 573 700 l 5
 568 671 l 5
 230 671 l 5
177 366 m 5
 181 394 l 5
 499 394 l 5
 495 366 l 5
 177 366 l 5
213 700 m 5
 243 700 l 5
 120 0 l 5
 90 0 l 5
 213 700 l 5
EndSplineSet
EndChar

StartChar: F
Encoding: 70 70 6
Width: 470
VWidth: 0
Flags: HMW
LayerCount: 2
Fore
SplineSet
230 671 m 5
 235 700 l 5
 533 700 l 5
 528 671 l 5
 230 671 l 5
174 354 m 5
 180 383 l 5
 468 383 l 5
 462 354 l 5
 174 354 l 5
213 700 m 5
 243 700 l 5
 120 0 l 5
 90 0 l 5
 213 700 l 5
EndSplineSet
EndChar

StartChar: G
Encoding: 71 71 7
Width: 765
VWidth: 0
Flags: HMW
LayerCount: 2
Fore
SplineSet
477 321 m 1
 483 355 l 1
 740 355 l 1
 737 321 l 1
 477 321 l 1
773 355 m 1
 739 171 613 -8 389 -8 c 4
 225 -8 105 99.8173828125 105 295 c 0
 105 517 294 708 508 708 c 1
 508 679 l 1
 305 679 135 498 135 295 c 0
 135 124.3203125 242 21 390 21 c 4
 589 21 708 182 740 355 c 1
 773 355 l 1
747 543 m 1
 708 627 615 679 508 679 c 1
 508 708 l 1
 637 708 730 648 775 561 c 1
 747 543 l 1
EndSplineSet
EndChar

StartChar: T
Encoding: 84 84 8
Width: 430
VWidth: 0
Flags: HMW
LayerCount: 2
Fore
SplineSet
138 671 m 5
 143 700 l 5
 533 700 l 5
 528 671 l 5
 138 671 l 5
323 700 m 5
 353 700 l 5
 230 0 l 5
 200 0 l 5
 323 700 l 5
EndSplineSet
EndChar

StartChar: L
Encoding: 76 76 9
Width: 430
VWidth: 0
Flags: HMW
LayerCount: 2
Fore
SplineSet
97 0 m 1
 102.11328125 29 l 5
 415.11328125 29 l 5
 410 0 l 1
 97 0 l 1
213.428710938 700 m 1
 243.428710938 700 l 1
 120 0 l 1
 90 0 l 1
 213.428710938 700 l 1
EndSplineSet
EndChar

StartChar: D
Encoding: 68 68 10
Width: 645
VWidth: 0
Flags: HMW
LayerCount: 2
Fore
SplineSet
112 0 m 1
 117 30 l 1
 260 30 l 1
 260 0 l 1
 112 0 l 1
230 670 m 1
 235 700 l 1
 378 700 l 1
 378 670 l 1
 230 670 l 1
213 700 m 1
 245 700 l 1
 122 0 l 1
 90 0 l 1
 213 700 l 1
260 30 m 1
 458 30 632 197 632 405 c 4
 632 575.874023438 546 670 378 670 c 1
 378 700 l 1
 562 700 664 594 664 405 c 4
 664 182.75 474 0 260 0 c 1
 260 30 l 1
EndSplineSet
EndChar

StartChar: Q
Encoding: 81 81 11
Width: 771
VWidth: 0
Flags: HMW
LayerCount: 2
Fore
SplineSet
135 290 m 0
 135 142 229 21 397 21 c 0
 585 21 759 182 759 410 c 0
 759 558 665 679 497 679 c 0
 309 679 135 518 135 290 c 0
105 290 m 0
 105 539 293 708 497 708 c 0
 681 708 789 579 789 410 c 0
 789 161 601 -8 397 -8 c 0
 213 -8 105 121 105 290 c 0
430.8984375 300 m 5
 468.8984375 300 l 1
 736 0 l 1
 698 0 l 5
 430.8984375 300 l 5
EndSplineSet
EndChar

StartChar: A
Encoding: 65 65 12
Width: 640
VWidth: 0
Flags: HMW
LayerCount: 2
Fore
SplineSet
176 220 m 1
 181 252 l 1
 551 252 l 1
 546 220 l 1
 176 220 l 1
438 650 m 1
 448 725 l 1
 625 0 l 1
 593 0 l 1
 438 650 l 1
448 725 m 1
 438 650 l 1
 53 0 l 1
 15 0 l 1
 448 725 l 1
EndSplineSet
EndChar

StartChar: R
Encoding: 82 82 13
Width: 503
VWidth: 0
Flags: HMW
LayerCount: 2
Fore
SplineSet
292 294 m 1
 292 323 l 1
 422 323 526 399.288085938 526 527 c 0
 526 633 468 671 358 671 c 1
 358 700 l 1
 483 700 557 646 557 527 c 0
 557 385.965820312 437 294 292 294 c 1
164 294 m 1
 169 323 l 1
 292 323 l 1
 292 294 l 1
 164 294 l 1
230 671 m 1
 235 700 l 1
 358 700 l 1
 358 671 l 1
 230 671 l 1
163.83984375 294 m 1
 168.954101562 323 l 1
 296.954101562 323 l 1
 291.83984375 294 l 1
 163.83984375 294 l 1
230.315429688 671 m 1
 235.428710938 700 l 1
 358.428710938 700 l 1
 358.315429688 671 l 1
 230.315429688 671 l 1
243.428710938 700 m 1025
271.895507812 317 m 5
 303.895507812 317 l 1
 493 0 l 1
 458 0 l 5
 271.895507812 317 l 5
230.315429688 671 m 1
 235.428710938 700 l 1
 358.428710938 700 l 1
 358.315429688 671 l 1
 230.315429688 671 l 1
213.428710938 700 m 1
 243.428710938 700 l 1
 120 0 l 1
 90 0 l 1
 213.428710938 700 l 1
EndSplineSet
EndChar

StartChar: V
Encoding: 86 86 14
Width: 640
VWidth: 0
Flags: HMW
LayerCount: 2
Fore
SplineSet
325.052734375 40 m 5
 315.591796875 -25 l 1
 138.428710938 700 l 1
 170.428710938 700 l 5
 325.052734375 40 l 5
315.591796875 -25 m 1
 324.052734375 40 l 5
 710.428710938 700 l 5
 748.428710938 700 l 1
 315.591796875 -25 l 1
EndSplineSet
EndChar

StartChar: M
Encoding: 77 77 15
Width: 890
VWidth: 0
Flags: HMW
LayerCount: 2
Fore
SplineSet
258.967773438 640 m 1
 262.836914062 725 l 1
 469.041015625 35 l 1
 456.4609375 -25 l 1
 258.967773438 640 l 1
262.836914062 725 m 1
 264.967773438 640 l 1
 90 0 l 1
 60 0 l 1
 262.836914062 725 l 1
845.967773438 620 m 5
 882.836914062 725 l 1
 830 0 l 1
 800 0 l 1
 845.967773438 620 l 5
882.836914062 725 m 1
 851.967773438 620 l 5
 456.4609375 -25 l 1
 459.041015625 35 l 1
 882.836914062 725 l 1
EndSplineSet
EndChar

StartChar: W
Encoding: 87 87 16
Width: 990
VWidth: 0
Flags: HMW
LayerCount: 2
Fore
SplineSet
721.290039062 30 m 5
 700.591796875 -25 l 1
 601.375976562 660 l 1
 620.836914062 725 l 5
 721.290039062 30 l 5
700.591796875 -25 m 1
 707.81640625 50 l 5
 1059.42871094 700 l 5
 1093.42871094 700 l 1
 700.591796875 -25 l 1
295.81640625 50 m 5
 280.591796875 -25 l 1
 143.428710938 700 l 1
 173.428710938 700 l 5
 295.81640625 50 l 5
280.591796875 -25 m 1
 275.290039062 30 l 5
 620.836914062 725 l 5
 621.375976562 660 l 1
 280.591796875 -25 l 1
EndSplineSet
EndChar

StartChar: N
Encoding: 78 78 17
Width: 665
VWidth: 0
Flags: HMW
LayerCount: 2
Fore
SplineSet
181.551757812 661 m 5
 177.836914062 725 l 1
 606.876953125 39 l 1
 610.591796875 -25 l 1
 181.551757812 661 l 5
708.428710938 700 m 1
 738.428710938 700 l 1
 610.591796875 -25 l 1
 592.934570312 45 l 1
 708.428710938 700 l 1
177.836914062 725 m 1
 194.612304688 650 l 5
 80 0 l 1
 50 0 l 1
 177.836914062 725 l 1
EndSplineSet
EndChar

StartChar: a
Encoding: 97 97 18
Width: 565
VWidth: 0
Flags: HMW
LayerCount: 2
Fore
SplineSet
536.110351562 460 m 1
 566.110351562 460 l 1
 485 0 l 1
 455 0 l 1
 536.110351562 460 l 1
81 190 m 4
 81 357 214 468 339 468 c 4
 447 468 519 396 519 287 c 4
 519 135.965820312 415 -8 272 -8 c 4
 157 -8 81 75.9462890625 81 190 c 4
113 190 m 4
 113 101.869140625 171 22 271 22 c 4
 391 22 500 142.288085938 500 280 c 4
 500 376 432 436 342 436 c 4
 232 436 113 336 113 190 c 4
EndSplineSet
Substitution2: "less simple a" a.alt
EndChar

StartChar: X
Encoding: 88 88 19
Width: 520
VWidth: 0
Flags: HMW
LayerCount: 2
Fore
SplineSet
168.428710938 700 m 1
 203.428710938 700 l 1
 500 0 l 1
 465 0 l 1
 168.428710938 700 l 1
569.428710938 700 m 1
 608.428710938 700 l 1
 59 0 l 5
 20 0 l 1
 569.428710938 700 l 1
EndSplineSet
EndChar

StartChar: K
Encoding: 75 75 20
Width: 489
VWidth: 0
Flags: HMW
LayerCount: 2
Fore
SplineSet
169.00390625 380 m 1
 206.00390625 380 l 1
 474 0 l 1
 437 0 l 1
 169.00390625 380 l 1
538.428710938 700 m 1
 582.428710938 700 l 1
 206.241210938 370 l 5
 165.241210938 370 l 1
 538.428710938 700 l 1
208.428710938 700 m 1
 238.428710938 700 l 1
 115 0 l 1
 85 0 l 1
 208.428710938 700 l 1
EndSplineSet
EndChar

StartChar: Y
Encoding: 89 89 21
Width: 527
VWidth: 0
Flags: HMW
LayerCount: 2
Fore
SplineSet
295.016601562 295 m 1
 327.016601562 295 l 1
 275 0 l 1
 243 0 l 1
 295.016601562 295 l 1
138.428710938 700 m 1
 173.428710938 700 l 5
 317.8984375 300 l 5
 294.37109375 280 l 1
 138.428710938 700 l 1
594.428710938 700 m 5
 635.428710938 700 l 1
 321.37109375 280 l 1
 298.8984375 300 l 5
 594.428710938 700 l 5
EndSplineSet
EndChar

StartChar: B
Encoding: 66 66 22
Width: 528
VWidth: 0
Flags: HMW
LayerCount: 2
Fore
SplineSet
280 376 m 1
 280 394 l 1
 360 394 495 434 495 565 c 4
 495 641 440 671 340 671 c 1
 340 700 l 1
 465 700 525 654 525 565 c 0
 525 416 390 376 280 376 c 1
240 0 m 1
 240 29 l 1
 380 29 473 99 473 225 c 0
 473 331 380 366 300 366 c 1
 300 389 l 1
 395 389 506 349 506 225 c 0
 506 76 400 0 240 0 c 1
117 0 m 1
 117 29 l 1
 240 29 l 1
 240 0 l 1
 117 0 l 1
237 671 m 1
 237 700 l 1
 340 700 l 1
 340 671 l 1
 237 671 l 1
177 366 m 1
 177 394 l 1
 300 394 l 1
 300 366 l 1
 177 366 l 1
214 700 m 1
 244 700 l 1
 120 0 l 1
 90 0 l 1
 214 700 l 1
EndSplineSet
EndChar

StartChar: Z
Encoding: 90 90 23
Width: 545
VWidth: 0
Flags: HMW
LayerCount: 2
Fore
SplineSet
20 0 m 1
 70.642578125 32 l 1
 515.642578125 32 l 1
 510 0 l 1
 20 0 l 1
157.786132812 668 m 1
 163.428710938 700 l 1
 653.428710938 700 l 1
 602.786132812 668 l 1
 157.786132812 668 l 1
611.428710938 700 m 1
 653.428710938 700 l 1
 62 0 l 5
 20 0 l 1
 611.428710938 700 l 1
EndSplineSet
EndChar

StartChar: o
Encoding: 111 111 24
Width: 524
VWidth: 0
Flags: HMW
LayerCount: 2
Fore
SplineSet
335 468 m 0
 454 468 525 394 525 267 c 0
 525 111 397 -8 271 -8 c 0
 152 -8 81 66 81 193 c 0
 81 349 209 468 335 468 c 0
112 193 m 0
 112 85 168 22 271 22 c 0
 377 22 494 126 494 266 c 0
 494 374 437 438 334 438 c 0
 227 438 112 333 112 193 c 0
EndSplineSet
EndChar

StartChar: J
Encoding: 74 74 25
Width: 211
VWidth: 0
Flags: HMW
LayerCount: 2
Fore
SplineSet
110 -60 m 1
 87 -50 l 1
 219 700 l 1
 244 700 l 1
 110 -60 l 1
-134 -147 m 1
 -114 -171 -80 -195 -42 -195 c 4
 28 -195 67 -166 87 -50 c 1
 110 -60 l 1
 91 -169 53 -220 -41 -220 c 0
 -94 -220 -138 -185 -149 -165 c 1
 -134 -147 l 1
EndSplineSet
EndChar

StartChar: t
Encoding: 116 116 26
Width: 210
VWidth: 0
Flags: HMW
LayerCount: 2
Fore
SplineSet
97.1103515625 460 m 5
 275.110351562 460 l 5
 269.8203125 430 l 5
 91.8203125 430 l 5
 97.1103515625 460 l 5
198.322265625 620 m 5
 230.322265625 620 l 5
 121 0 l 5
 89 0 l 5
 198.322265625 620 l 5
EndSplineSet
EndChar

StartChar: d
Encoding: 100 100 27
Width: 565
VWidth: 0
Flags: HMW
LayerCount: 2
Fore
SplineSet
81 190 m 4
 81 357 214 468 339 468 c 4
 447 468 519 396 519 287 c 4
 519 135.965820312 415 -8 272 -8 c 4
 157 -8 81 75.9462890625 81 190 c 4
113 190 m 4
 113 101.869140625 171 22 271 22 c 4
 391 22 500 142.288085938 500 280 c 4
 500 376 432 436 342 436 c 4
 232 436 113 336 113 190 c 4
592.53515625 780 m 1
 622.53515625 780 l 1
 485 0 l 1
 455 0 l 1
 592.53515625 780 l 1
EndSplineSet
EndChar

StartChar: l
Encoding: 108 108 28
Width: 200
VWidth: 0
Flags: HMW
LayerCount: 2
Fore
SplineSet
222.53515625 780 m 5
 252.53515625 780 l 1
 115 0 l 1
 85 0 l 5
 222.53515625 780 l 5
EndSplineSet
EndChar

StartChar: i
Encoding: 105 105 29
Width: 226
VWidth: 0
Flags: HMW
LayerCount: 2
Fore
SplineSet
204.083984375 675 m 4
 204.083984375 690 215.083984375 703 232.083984375 703 c 4
 249.083984375 703 260.083984375 690 260.083984375 675 c 4
 260.083984375 660 249.083984375 647 232.083984375 647 c 4
 215.083984375 647 204.083984375 660 204.083984375 675 c 4
179.110351562 460 m 1
 209.110351562 460 l 1
 128 0 l 1
 98 0 l 1
 179.110351562 460 l 1
EndSplineSet
EndChar

StartChar: r
Encoding: 114 114 30
Width: 313
VWidth: 0
Flags: HMW
LayerCount: 2
Fore
SplineSet
196.110351562 460 m 1
 115 0 l 1
 85 0 l 1
 166.110351562 460 l 1
 196.110351562 460 l 1
351.059570312 403 m 1
 341.057617188 420 323.702148438 435 287.702148438 435 c 0
 227.702148438 435 176.008789062 346 164.37109375 280 c 1
 150.37109375 280 l 5
 169.590820312 389 219.521484375 468 294.521484375 468 c 0
 327.521484375 468 354.875976562 453 373.997070312 431 c 1
 351.059570312 403 l 1
EndSplineSet
EndChar

StartChar: c
Encoding: 99 99 31
Width: 473
VWidth: 0
Flags: HMW
LayerCount: 2
Fore
SplineSet
113 190 m 0
 113 102.288085938 172 22 262 22 c 0
 329 22 389 48 437 101 c 1
 427 51 l 1
 389 13 335 -8 262 -8 c 0
 157 -8 81 76.99609375 81 190 c 0
 81 357 211 468 346 468 c 4
 419 468 460 446 485 409 c 1
 477 366 l 1
 446 413 413 435 346 435 c 4
 221 435 113 336 113 190 c 0
EndSplineSet
EndChar

StartChar: b
Encoding: 98 98 32
Width: 565
VWidth: 0
Flags: HMW
LayerCount: 2
Fore
SplineSet
565 270 m 4
 565 103 432 -8 307 -8 c 4
 199 -8 127 64 127 173 c 4
 127 324.034179688 231 468 374 468 c 4
 489 468 565 384.053710938 565 270 c 4
533 270 m 4
 533 358.130859375 475 438 375 438 c 4
 255 438 146 317.711914062 146 180 c 4
 146 84 214 24 304 24 c 4
 414 24 533 124 533 270 c 4
247.53515625 780 m 1
 110 0 l 1
 80 0 l 1
 217.53515625 780 l 1
 247.53515625 780 l 1
EndSplineSet
EndChar

StartChar: p
Encoding: 112 112 33
Width: 565
VWidth: 0
Flags: HMW
LayerCount: 2
Fore
SplineSet
565 270 m 0
 565 103 432 -8 307 -8 c 0
 199 -8 127 64 127 173 c 0
 127 324.034179688 231 468 374 468 c 0
 489 468 565 384.053710938 565 270 c 0
533 270 m 0
 533 358.130859375 475 438 375 438 c 0
 255 438 146 317.711914062 146 180 c 0
 146 84 214 24 304 24 c 0
 414 24 533 124 533 270 c 0
71.2080078125 -220 m 1
 41.2080078125 -220 l 1
 161.110351562 460 l 1
 191.110351562 460 l 1
 71.2080078125 -220 l 1
EndSplineSet
EndChar

StartChar: q
Encoding: 113 113 34
Width: 565
VWidth: 0
Flags: HMW
LayerCount: 2
Fore
SplineSet
81 190 m 4
 81 357 214 468 339 468 c 4
 447 468 519 396 519 287 c 4
 519 135.965820312 415 -8 272 -8 c 4
 157 -8 81 75.9462890625 81 190 c 4
113 190 m 4
 113 101.869140625 171 22 271 22 c 4
 391 22 500 142.288085938 500 280 c 4
 500 376 432 436 342 436 c 4
 232 436 113 336 113 190 c 4
416.208007812 -220 m 1
 536.110351562 460 l 1
 566.110351562 460 l 1
 446.208007812 -220 l 1
 416.208007812 -220 l 1
EndSplineSet
EndChar

StartChar: h
Encoding: 104 104 35
Width: 495
VWidth: 0
Flags: HMW
LayerCount: 2
Fore
SplineSet
462.8984375 300 m 5
 410 0 l 5
 380 0 l 5
 431.134765625 290 l 5
 462.8984375 300 l 5
462.8984375 300 m 5
 431.134765625 290 l 5
 447.180664062 381 424.231445312 438 344.231445312 438 c 4
 254.231445312 438 177.772460938 356 164.37109375 280 c 5
 148.37109375 280 l 5
 167.590820312 389 259.521484375 468 354.521484375 468 c 4
 443.521484375 468 480.354492188 399 462.8984375 300 c 5
252.53515625 780 m 1
 115 0 l 1
 85 0 l 1
 222.53515625 780 l 1
 252.53515625 780 l 1
EndSplineSet
EndChar

StartChar: n
Encoding: 110 110 36
Width: 495
VWidth: 0
Flags: HMW
LayerCount: 2
Fore
SplineSet
462.8984375 300 m 5
 410 0 l 5
 380 0 l 5
 431.134765625 290 l 5
 462.8984375 300 l 5
196.110351562 460 m 5
 115 0 l 5
 85 0 l 5
 166.110351562 460 l 5
 196.110351562 460 l 5
462.8984375 300 m 5
 431.134765625 290 l 5
 447.180664062 381 424.231445312 438 344.231445312 438 c 4
 254.231445312 438 177.772460938 356 164.37109375 280 c 5
 148.37109375 280 l 5
 167.590820312 389 259.521484375 468 354.521484375 468 c 4
 443.521484375 468 480.354492188 399 462.8984375 300 c 5
EndSplineSet
EndChar

StartChar: m
Encoding: 109 109 37
Width: 750
VWidth: 0
Flags: HMW
LayerCount: 2
Fore
SplineSet
717.8984375 300 m 1
 665 0 l 1
 635 0 l 1
 686.134765625 290 l 1
 717.8984375 300 l 1
717.8984375 300 m 1
 686.134765625 290 l 1
 702.180664062 381 679.231445312 438 609.231445312 438 c 0
 529.231445312 438 452.772460938 356 439.37109375 280 c 1
 418.37109375 280 l 1
 437.590820312 389 522.521484375 468 617.521484375 468 c 0
 696.521484375 468 735.354492188 399 717.8984375 300 c 1
442.8984375 300 m 1
 390 0 l 1
 360 0 l 1
 411.134765625 290 l 1
 442.8984375 300 l 1
196.110351562 460 m 1
 115 0 l 1
 85 0 l 1
 166.110351562 460 l 1
 196.110351562 460 l 1
442.8984375 300 m 1
 411.134765625 290 l 1
 427.180664062 381 404.231445312 438 334.231445312 438 c 0
 254.231445312 438 177.772460938 356 164.37109375 280 c 1
 148.37109375 280 l 1
 167.590820312 389 247.521484375 468 342.521484375 468 c 0
 421.521484375 468 460.354492188 399 442.8984375 300 c 1
EndSplineSet
EndChar

StartChar: k
Encoding: 107 107 38
Width: 395
VWidth: 0
Flags: HMW
LayerCount: 2
Fore
SplineSet
156.608398438 270 m 5
 192.608398438 270 l 1
 385 0 l 1
 348 0 l 5
 156.608398438 270 l 5
397.110351562 460 m 1
 446.110351562 460 l 1
 192.608398438 270 l 1
 143.608398438 270 l 1
 397.110351562 460 l 1
217.53515625 780 m 1
 247.53515625 780 l 1
 110 0 l 1
 80 0 l 1
 217.53515625 780 l 1
EndSplineSet
EndChar

StartChar: u
Encoding: 117 117 39
Width: 495
VWidth: 0
Flags: HMW
LayerCount: 2
Fore
SplineSet
113.1015625 160 m 5
 166 460 l 5
 196 460 l 5
 144.865234375 170 l 5
 113.1015625 160 l 5
379.889648438 0 m 5
 461 460 l 5
 491 460 l 5
 409.889648438 0 l 5
 379.889648438 0 l 5
113.1015625 160 m 5
 144.865234375 170 l 5
 128.819335938 79 151.768554688 22 231.768554688 22 c 4
 321.768554688 22 398.227539062 104 411.62890625 180 c 5
 427.62890625 180 l 5
 408.409179688 71 316.478515625 -8 221.478515625 -8 c 4
 132.478515625 -8 95.6455078125 61 113.1015625 160 c 5
EndSplineSet
EndChar

StartChar: e
Encoding: 101 101 40
Width: 501
VWidth: 0
Flags: HMW
LayerCount: 2
Fore
SplineSet
115.321289062 223 m 1
 120.610351562 253 l 1
 489.610351562 253 l 1
 494.321289062 223 l 1
 115.321289062 223 l 1
494.321289062 223 m 1
 468.08203125 250 l 1
 470.295274229 262.55207255 471.385631562 275.003674577 471.385631562 287.170622867 c 0
 471.385631562 369.027508449 427.032226562 436 338.231445312 436 c 0
 243.231445312 436 139.008789062 346 122.08203125 250 c 1
 117.002370825 231.616638011 112.518179045 207.29074864 112.518179045 185.17586958 c 0
 112.518179045 91.3929642288 171.362304688 25 255.055664062 25 c 4
 345.055664062 25 410.75390625 80 449.451171875 135 c 1
 473.629882812 117 l 1
 424.111328125 46 353.58984375 -5 254.58984375 -5 c 0
 152.651367188 -5 81.2587890625 71.8857421875 81.2587890625 185.276367188 c 0
 81.2587890625 351.645507812 210.121241098 468 338.521484375 468 c 0
 438.865764941 468 502.657983601 402.535850452 502.657983601 292.425322281 c 0
 502.657983601 271.82332648 501.748820816 242.745048058 494.321289062 223 c 1
EndSplineSet
EndChar

StartChar: g
Encoding: 103 103 41
Width: 565
VWidth: 0
Flags: HMW
LayerCount: 2
Fore
SplineSet
81 190 m 0
 81 357 214 468 339 468 c 0
 447 468 519 396 519 287 c 0
 519 135.965820312 415 -8 272 -8 c 0
 157 -8 81 75.9462890625 81 190 c 0
113 190 m 0
 113 101.869140625 171 22 271 22 c 0
 391 22 500 142.288085938 500 280 c 0
 500 376 432 436 342 436 c 0
 232 436 113 336 113 190 c 0
53.7099609375 -30 m 1
 83.7099609375 -30 l 1
 65.9013671875 -131 120.734375 -200 226.734375 -200 c 4
 336.734375 -200 432.077148438 -130 456.763671875 10 c 1
 486.763671875 10 l 1
 458.727539062 -149 356.444335938 -230 225.444335938 -230 c 0
 105.444335938 -230 32.7275390625 -149 53.7099609375 -30 c 1
456.763671875 10 m 1
 536.110351562 460 l 1
 566.110351562 460 l 1
 486.763671875 10 l 1
 456.763671875 10 l 1
EndSplineSet
EndChar

StartChar: f
Encoding: 102 102 42
Width: 278
VWidth: 0
Flags: HMW
LayerCount: 2
Fore
SplineSet
131.110351562 460 m 1
 326.110351562 460 l 1
 320.8203125 430 l 1
 125.8203125 430 l 1
 131.110351562 460 l 1
206.0859375 630 m 1
 238.0859375 630 l 1
 127 0 l 1
 95 0 l 1
 206.0859375 630 l 1
395.602539062 718 m 1
 383.12890625 738 361.302734375 756 336.302734375 756 c 4
 281.302734375 756 251.487304688 706 238.0859375 630 c 1
 206.0859375 630 l 1
 221.779296875 719 257.9453125 788 341.9453125 788 c 0
 384.9453125 788 407.008789062 760 418.482421875 740 c 1
 395.602539062 718 l 1
EndSplineSet
EndChar

StartChar: s
Encoding: 115 115 43
Width: 382
VWidth: 0
Flags: HMW
LayerCount: 2
Fore
SplineSet
96 150 m 1
 96 101 123 23 206 23 c 0
 284 23 331 69 331 138 c 4
 331 187 298.640560745 210.020772178 243 231 c 0
 182 254 128 279 128 349 c 0
 128 414 192 468 277 468 c 0
 348 468 397 419 406 368 c 1
 377 355 l 1
 366 399 328 437 275 437 c 0
 200 437 162 391 162 351 c 0
 162 295 208 279 262 259 c 0
 316.88033918 238.673948452 365 206 365 140 c 4
 365 42 294 -8 205 -8 c 0
 122 -8 65 61 65 144 c 1
 96 150 l 1
EndSplineSet
EndChar

StartChar: y
Encoding: 121 121 44
Width: 440
VWidth: 0
Flags: HMW
LayerCount: 2
Fore
SplineSet
91.1103515625 460 m 1
 123.110351562 460 l 5
 232.758789062 44 l 5
 217.35546875 -15 l 1
 91.1103515625 460 l 1
474.110351562 460 m 5
 511.110351562 460 l 1
 217.35546875 -15 l 1
 225.758789062 44 l 5
 474.110351562 460 l 5
211.349609375 25 m 1
 233.408203125 25 l 1
 511.110351562 460 l 1
 101.208007812 -220 l 1
 66.2080078125 -220 l 1
 211.349609375 25 l 1
EndSplineSet
EndChar

StartChar: w
Encoding: 119 119 45
Width: 670
VWidth: 0
Flags: HMW
LayerCount: 2
Fore
SplineSet
701.110351562 460 m 1
 736.110351562 460 l 1
 474.357421875 -32 l 1
 488.81640625 50 l 5
 701.110351562 460 l 1
406.412109375 405 m 1
 418.518554688 485 l 1
 488.81640625 50 l 5
 474.357421875 -32 l 1
 406.412109375 405 l 1
418.518554688 485 m 1
 406.412109375 405 l 1
 184.357421875 -32 l 1
 196.81640625 50 l 5
 418.518554688 485 l 1
96.1103515625 460 m 1
 127.110351562 460 l 1
 196.81640625 50 l 5
 184.357421875 -32 l 1
 96.1103515625 460 l 1
EndSplineSet
EndChar

StartChar: v
Encoding: 118 118 46
Width: 420
VWidth: 0
Flags: HMW
LayerCount: 2
Fore
SplineSet
454.110351562 460 m 1
 491.110351562 460 l 1
 205.591796875 -25 l 1
 216.405273438 42 l 5
 454.110351562 460 l 1
91.1103515625 460 m 1
 124.110351562 460 l 1
 216.405273438 42 l 5
 205.591796875 -25 l 1
 91.1103515625 460 l 1
EndSplineSet
EndChar

StartChar: x
Encoding: 120 120 47
Width: 385
VWidth: 0
Flags: HMW
LayerCount: 2
Fore
SplineSet
101.110351562 460 m 1
 137.110351562 460 l 1
 375 0 l 1
 339 0 l 1
 101.110351562 460 l 1
406.110351562 460 m 5
 446.110351562 460 l 1
 50 0 l 1
 10 0 l 1
 406.110351562 460 l 5
EndSplineSet
EndChar

StartChar: z
Encoding: 122 122 48
Width: 435
VWidth: 0
Flags: HMW
LayerCount: 2
Fore
SplineSet
80.2900390625 30 m 1
 410.290039062 30 l 1
 405 0 l 1
 20 0 l 1
 80.2900390625 30 l 1
111.110351562 460 m 1
 496.110351562 460 l 1
 445.8203125 430 l 1
 105.8203125 430 l 1
 111.110351562 460 l 1
457.110351562 460 m 1
 496.110351562 460 l 1
 59 0 l 5
 20 0 l 1
 457.110351562 460 l 1
EndSplineSet
EndChar

StartChar: j
Encoding: 106 106 49
Width: 211
VWidth: 0
Flags: HMW
LayerCount: 2
Fore
SplineSet
189.083984375 675 m 0
 189.083984375 690 200.083984375 703 217.083984375 703 c 0
 234.083984375 703 245.083984375 690 245.083984375 675 c 0
 245.083984375 660 234.083984375 647 217.083984375 647 c 0
 200.083984375 647 189.083984375 660 189.083984375 675 c 0
-88.8017578125 -152 m 1
 -76.328125 -172 -53.8544921875 -192 -28.8544921875 -192 c 0
 31.1455078125 -192 58.6669921875 -138 72.0673828125 -62 c 1
 102.067382812 -62 l 1
 86.375 -151 50.2080078125 -220 -33.7919921875 -220 c 0
 -76.7919921875 -220 -98.8544921875 -192 -110.328125 -172 c 1
 -88.8017578125 -152 l 1
102.067382812 -62 m 1
 72.0673828125 -62 l 1
 164.110351562 460 l 1
 194.110351562 460 l 1
 102.067382812 -62 l 1
EndSplineSet
EndChar

StartChar: P
Encoding: 80 80 50
Width: 516
VWidth: 0
Flags: HMW
LayerCount: 2
Fore
SplineSet
292 294 m 5
 292 323 l 5
 422 323 526 399.288085938 526 527 c 4
 526 633 468 671 358 671 c 5
 358 700 l 5
 483 700 557 646 557 527 c 4
 557 385.965820312 437 294 292 294 c 5
164 294 m 5
 169 323 l 5
 292 323 l 5
 292 294 l 5
 164 294 l 5
230 671 m 5
 235 700 l 5
 358 700 l 5
 358 671 l 5
 230 671 l 5
213 700 m 1
 243 700 l 1
 120 0 l 1
 90 0 l 1
 213 700 l 1
EndSplineSet
EndChar

StartChar: U
Encoding: 85 85 51
Width: 616
VWidth: 0
Flags: HMW
LayerCount: 2
Fore
SplineSet
624.428710938 700 m 1
 654.428710938 700 l 1
 573.318359375 240 l 1
 543.318359375 240 l 1
 624.428710938 700 l 1
208.428710938 700 m 1
 238.428710938 700 l 1
 157.318359375 240 l 1
 127.318359375 240 l 1
 208.428710938 700 l 1
306.236328125 -10 m 0
 171.236328125 -10 101.045898438 91 127.318359375 240 c 1
 157.318359375 240 l 1
 133.337890625 104 192.87890625 22 308.87890625 22 c 4
 417.87890625 22 519.337890625 104 543.318359375 240 c 1
 573.318359375 240 l 1
 547.045898438 91 441.236328125 -10 306.236328125 -10 c 0
EndSplineSet
EndChar

StartChar: S
Encoding: 83 83 52
Width: 518
VWidth: 0
Flags: HMW
LayerCount: 2
Fore
SplineSet
520 538 m 1
 500 616 454 677 367 677 c 0
 277 677 204 625 204 534 c 1
 170 530 l 1
 170 641 264 708 368 708 c 0
 471 708 531 631 549 550 c 1
 520 538 l 1
170 530 m 1
 204 534 l 1
 204 454.373046875 261.4609375 427.963867188 346 384.337890625 c 0
 415.880245989 348.276525813 493 293.497070312 493 195 c 1
 460 192 l 1
 460 270.408203125 398.813476562 324.84765625 323 362.897460938 c 0
 243.43359375 402.831054688 170 442.387695312 170 530 c 1
97 204 m 1
 114 116 161 22 268 22 c 4
 381 22 460 92 460 192 c 1
 493 195 l 1
 493 76 404 -8 265 -8 c 4
 150 -8 89 86 70 193 c 5
 97 204 l 1
EndSplineSet
EndChar

StartChar: at
Encoding: 64 64 53
Width: 770
VWidth: 0
Flags: HMW
LayerCount: 2
Fore
SplineSet
610 520 m 1
 641 520 l 1
 561 289 l 2
 557.483398438 278.844726562 552 252 552 234 c 0
 552 210 554 180 593 180 c 0
 658 180 779 284 779 430 c 1
 807 430 l 1
 807 269 672 152 594 152 c 0
 523 152 517 204 527 270 c 0
 528.647460938 280.875976562 522 261 524 270 c 2
 610 520 l 1
275 290 m 0
 275 224 310 189 367 189 c 0
 447 189 561 295 561 401 c 0
 561 467 520 501 470 501 c 0
 385 501 275 406 275 290 c 0
247 290 m 0
 247 429 375 528 470 528 c 0
 535 528 580 499 580 410 c 0
 580 281 460 162 360 162 c 0
 295 162 247 201 247 290 c 0
85 260 m 0
 85 519 291 708 535 708 c 4
 719 708 807 589 807 430 c 1
 779 430 l 1
 779 583 693 680 535 680 c 4
 309 680 115 503 115 260 c 0
 115 137 187 20 355 20 c 1
 355 -8 l 1
 171 -8 85 121 85 260 c 0
355 20 m 1
 445 20 528 41 594 78 c 1
 603 51 l 1
 543 22 469 -8 355 -8 c 1
 355 20 l 1
EndSplineSet
EndChar

StartChar: period
Encoding: 46 46 54
Width: 300
VWidth: 0
Flags: HMW
LayerCount: 2
Fore
SplineSet
120 17 m 0
 120 35 131 47 150 47 c 0
 169 47 180 35 180 17 c 0
 180 -1 169 -13 150 -13 c 0
 131 -13 120 -1 120 17 c 0
EndSplineSet
EndChar

StartChar: comma
Encoding: 44 44 55
Width: 308
VWidth: 0
Flags: HMW
LayerCount: 2
Fore
SplineSet
201.162109375 103 m 1
 229.869140625 88 l 5
 58.140625 -160 l 5
 43.7275390625 -149 l 1
 201.162109375 103 l 1
EndSplineSet
EndChar

StartChar: exclam
Encoding: 33 33 59
Width: 300
VWidth: 0
Flags: HMW
LayerCount: 2
Fore
SplineSet
257.428710938 700 m 1
 289.428710938 700 l 1
 194.265625 200 l 1
 176.265625 200 l 1
 257.428710938 700 l 1
EndSplineSet
Refer: 54 46 N 1 0 0 1 0 0 2
EndChar

StartChar: quotesingle
Encoding: 39 39 60
Width: 295
VWidth: 0
Flags: HMW
LayerCount: 2
Fore
SplineSet
301.428710938 700 m 5
 343.428710938 700 l 1
 190.53125 400 l 1
 168.53125 400 l 5
 301.428710938 700 l 5
EndSplineSet
EndChar

StartChar: numbersign
Encoding: 35 35 61
Width: 605
VWidth: 0
Flags: HMW
LayerCount: 2
Fore
SplineSet
151.110351562 460 m 1
 155.518554688 485 l 1
 640.518554688 485 l 1
 636.110351562 460 l 1
 151.110351562 460 l 1
88.7919921875 220 m 1
 93.2001953125 245 l 1
 578.200195312 245 l 1
 573.791992188 220 l 1
 88.7919921875 220 l 1
611.428710938 700 m 5
 638.428710938 700 l 1
 345 0 l 1
 318 0 l 5
 611.428710938 700 l 5
383.428710938 700 m 1
 410.428710938 700 l 1
 117 0 l 1
 90 0 l 1
 383.428710938 700 l 1
EndSplineSet
EndChar

StartChar: hyphen
Encoding: 45 45 62
Width: 210
VWidth: 0
Flags: HMW
LayerCount: 2
Fore
SplineSet
44.673828125 225 m 1
 49.08203125 250 l 5
 249.08203125 250 l 5
 244.673828125 225 l 1
 44.673828125 225 l 1
EndSplineSet
EndChar

StartChar: dollar
Encoding: 36 36 63
Width: 518
VWidth: 0
Flags: HMW
LayerCount: 2
Fore
SplineSet
392.486328125 818 m 1
 416.243164062 818 l 1
 236.243164062 -112 l 5
 212.486328125 -112 l 5
 392.486328125 818 l 1
EndSplineSet
Refer: 52 83 N 1 0 0 1 0 0 2
EndChar

StartChar: bar
Encoding: 124 124 64
Width: 224
VWidth: 0
Flags: HMW
LayerCount: 2
Fore
SplineSet
238.416992188 785 m 1
 262.416992188 785 l 5
 86.08984375 -215 l 5
 62.08984375 -215 l 1
 238.416992188 785 l 1
EndSplineSet
EndChar

StartChar: zero
Encoding: 48 48 65
Width: 590
VWidth: 0
Flags: HMW
LayerCount: 2
Fore
SplineSet
138 245 m 0
 138 110 197 26 296 26 c 0
 447 26 576 234 576 457 c 0
 576 594 518 678 419 678 c 0
 272 678 138 475 138 245 c 0
420 708 m 0
 538 708 606 607 606 455 c 0
 606 204 460 -8 294 -8 c 0
 176 -8 107 93 107 245 c 0
 107 496 254 708 420 708 c 0
EndSplineSet
EndChar

StartChar: one
Encoding: 49 49 66
Width: 440
VWidth: 0
Flags: HMW
LayerCount: 2
Fore
SplineSet
213.793945312 616 m 5
 219.612304688 650 l 1
 430.192382812 710 l 1
 398.4921875 671 l 5
 213.793945312 616 l 5
391.138671875 670 m 1
 430.192382812 710 l 1
 305 0 l 1
 273 0 l 1
 391.138671875 670 l 1
EndSplineSet
EndChar

StartChar: two
Encoding: 50 50 67
Width: 544
VWidth: 0
Flags: HMW
LayerCount: 2
Fore
SplineSet
552.233398438 559.466796875 m 0
 552.233398438 631.030273438 506.397460938 679 415.725585938 679 c 0
 298.725585938 679 204.208984375 591 181.110351562 460 c 1
 151.110351562 460 l 1
 177.3828125 609 280.015625 709 415.015625 709 c 0
 534.649625822 709 584.360453696 642.177010515 584.360453696 560.352546629 c 0
 584.360453696 428.276051422 493.686768858 355.184546471 419.83984375 294 c 2
 101.208147321 30 l 1
 514.290039062 30 l 1
 509 0 l 1
 65 0 l 1
 41 0 l 1
 25 0 l 1
 411.306640625 325 l 2
 490.522436879 391.644400075 552.233398438 453.033203125 552.233398438 559.466796875 c 0
EndSplineSet
EndChar

StartChar: four
Encoding: 52 52 68
Width: 593
VWidth: 0
Flags: HMW
LayerCount: 2
Fore
SplineSet
51.44921875 150 m 1
 106.739257812 180 l 1
 589.739257812 180 l 1
 584.44921875 150 l 1
 51.44921875 150 l 1
95.7412109375 163 m 1
 51.44921875 150 l 1
 566.71875 730 l 5
 522.497070312 638 l 5
 95.7412109375 163 l 1
524.375976562 660 m 5
 566.71875 730 l 5
 438 0 l 1
 408 0 l 1
 524.375976562 660 l 5
EndSplineSet
EndChar

StartChar: slash
Encoding: 47 47 69
Width: 615
VWidth: 0
Flags: HMW
LayerCount: 2
Fore
SplineSet
683.428710938 700 m 1
 723.428710938 700 l 1
 28.55078125 -150 l 5
 -11.44921875 -150 l 1
 683.428710938 700 l 1
EndSplineSet
EndChar

StartChar: backslash
Encoding: 92 92 70
Width: 515
VWidth: 0
Flags: HMW
LayerCount: 2
Fore
SplineSet
138.428710938 700 m 1
 176.428710938 700 l 1
 500 0 l 1
 462 0 l 5
 138.428710938 700 l 1
EndSplineSet
EndChar

StartChar: eight
Encoding: 56 56 71
Width: 536
VWidth: 0
Flags: HMW
LayerCount: 2
Fore
SplineSet
387.83984375 708 m 0
 479.103515625 708 544.041992188 653.224609375 544.041992188 565.423828125 c 0
 544.041992188 449.1015625 441.365107976 365 332.359375 365 c 0
 239.784863991 365 182.227304799 422.522264541 182.227304799 506.041131646 c 0
 182.227304799 628.435829495 290.24609375 708 387.83984375 708 c 0
212.871355075 507.711360085 m 0
 212.871355075 436.76407296 260.544921875 390 331.767578125 390 c 0
 418.127929688 390 512.01953125 464.53125 512.01953125 564.354492188 c 0
 512.01953125 637.094726562 463.50390625 678 387.549804688 678 c 0
 308.98046875 678 212.871355075 611.105605921 212.871355075 507.711360085 c 0
335.00390625 380 m 0
 428.448887047 380 506.434570312 318.766601562 506.434570312 215.463867188 c 0
 506.434570312 83.5654296875 397.721679688 -8 271.58984375 -8 c 0
 168.442382812 -8 93.931640625 59.5771484375 93.931640625 153.55078125 c 4
 93.931640625 302.557617188 227.74375974 380 335.00390625 380 c 0
127.709960938 152.91796875 m 4
 127.709960938 82.400390625 189.443359375 22 272.87890625 22 c 0
 381.502929688 22 473.87890625 96.32421875 473.87890625 215.649414062 c 0
 473.87890625 300.1796875 419.4140625 355 335.595703125 355 c 0
 235.452148438 355 127.709960938 279.026367188 127.709960938 152.91796875 c 4
EndSplineSet
EndChar

StartChar: three
Encoding: 51 51 73
Width: 526
VWidth: 0
Flags: HMW
LayerCount: 2
Fore
SplineSet
300.772460938 356 m 1
 304.123046875 375 l 1
 433.9253475 375 499.944335938 462.283203125 499.944335938 562.879882812 c 0
 499.944335938 637.189453125 456.4140625 678 386.549804688 678 c 0
 286.549804688 678 228.030273438 607 213.748046875 526 c 1
 182.748046875 526 l 1
 201.967773438 635 282.83984375 708 387.83984375 708 c 0
 471.585824642 708 532.11801509 651.271199996 532.11801509 563.160381969 c 0
 532.11801509 432.800807008 444.280920282 356 300.772460938 356 c 1
261.58984375 -8 m 0
 148.088589014 -8 77.9779407051 73.6041781284 97.6201171875 185 c 1
 128.620117188 185 l 1
 113.245456304 97.8043847965 161.655273438 22 262.87890625 22 c 0
 364.629882812 22 465.901367188 97.927734375 465.901367188 220.791015625 c 0
 465.901367188 294.814453125 408.821280282 350 299.71484375 350 c 1
 303.416992188 371 l 1
 423.516061433 371 497.068462621 307.974283069 497.068462621 222.483942491 c 4
 497.068462621 74.8777374575 382.496380375 -8 261.58984375 -8 c 0
EndSplineSet
EndChar

StartChar: five
Encoding: 53 53 74
Width: 572
VWidth: 0
Flags: HMW
LayerCount: 2
Fore
SplineSet
313.428710938 700 m 1
 342.546875 695 l 1
 213.709960938 384 l 1
 165.774414062 339 l 1
 313.428710938 700 l 1
313.428710938 700 m 1
 643.428710938 700 l 1
 638.138671875 670 l 1
 308.138671875 670 l 1
 313.428710938 700 l 1
298.58984375 -8 m 0
 164.58984375 -8 109.340820312 87 82.5068359375 156 c 1
 108.328125 172 l 1
 128.749023438 112 186.703125 21 298.703125 21 c 0
 411.3671875 21 534.665039062 109.234375 534.665039062 278.69921875 c 0
 534.665039062 376.662109375 468.774414062 427 386.291992188 427 c 4
 309.291992188 427 259.588867188 406 165.774414062 339 c 1
 212.296875 393 l 1
 268.759765625 441 326.287109375 461 395.287109375 461 c 0
 487.619033486 461 567.223894222 397.59273422 567.223894222 280.977705886 c 0
 567.223894222 97.9677858279 437.070398136 -8 298.58984375 -8 c 0
EndSplineSet
EndChar

StartChar: six
Encoding: 54 54 75
Width: 546
VWidth: 0
Flags: HMW
LayerCount: 2
Fore
SplineSet
438.428710938 700 m 1
 475.428710938 700 l 5
 196.123046875 375 l 5
 170.23828125 387 l 1
 438.428710938 700 l 1
170.23828125 387 m 0
 192.937027234 412.64083119 186.256301403 389.008950139 212.884765625 402.0078125 c 1
 231.888671875 430.188476562 297.142578125 462 370.462890625 462 c 0
 465.514568461 462 540.892862538 389.963100504 540.892862538 277.930293513 c 0
 540.892862538 105.453561566 405.21431371 -8 271.58984375 -8 c 0
 162.009863769 -8 85.9165579882 64.2387564281 85.9165579882 179.073669687 c 0
 85.9165579882 266.626374227 125.016348174 335.915474714 170.23828125 387 c 0
117.336914062 178.829101562 m 0
 117.336914062 79.3388671875 180.96875 22 271.87890625 22 c 0
 400.724609375 22 508.495117188 141.407226562 508.495117188 278.517578125 c 4
 508.495117188 372.532226562 449.829101562 435 354.702148438 435 c 0
 253.716796875 435 117.336914062 331.807617188 117.336914062 178.829101562 c 0
EndSplineSet
EndChar

StartChar: seven
Encoding: 55 55 76
Width: 515
VWidth: 0
Flags: HMW
LayerCount: 2
Fore
SplineSet
153.138671875 670 m 1
 158.428710938 700 l 1
 628.428710938 700 l 1
 583.138671875 670 l 1
 153.138671875 670 l 1
594.428710938 700 m 1
 628.428710938 700 l 1
 155 0 l 1
 121 0 l 1
 594.428710938 700 l 1
EndSplineSet
EndChar

StartChar: plus
Encoding: 43 43 77
Width: 605
VWidth: 0
Flags: HMW
LayerCount: 2
Fore
SplineSet
112.318359375 240 m 1
 117.608398438 270 l 1
 582.608398438 270 l 1
 577.318359375 240 l 1
 112.318359375 240 l 1
375.163085938 500 m 1
 406.163085938 500 l 1
 319.763671875 10 l 1
 288.763671875 10 l 1
 375.163085938 500 l 1
EndSplineSet
EndChar

StartChar: percent
Encoding: 37 37 79
Width: 751
VWidth: 0
Flags: HMW
LayerCount: 2
Fore
SplineSet
158.58203125 522.534179688 m 0
 158.58203125 451.411132812 205.44140625 420 263.057617188 420 c 0
 345.614257812 420 421.37890625 489.6328125 421.37890625 576.465820312 c 0
 421.37890625 647.588867188 374.518554688 680 316.90234375 680 c 0
 234.345703125 680 158.58203125 609.3671875 158.58203125 522.534179688 c 0
317.83984375 708 m 0
 391.403320312 708 450.794921875 659.61328125 450.794921875 576.1875 c 0
 450.794921875 476.944335938 363.627929688 392 262.12109375 392 c 0
 188.557617188 392 129.166015625 439.38671875 129.166015625 522.8125 c 0
 129.166015625 622.055664062 216.333007812 708 317.83984375 708 c 0
453.05078125 122.534179688 m 0
 453.05078125 51.4111328125 499.91015625 20 557.526367188 20 c 0
 640.083007812 20 715.84765625 89.6328125 715.84765625 176.465820312 c 0
 715.84765625 247.588867188 668.987304688 280 611.37109375 280 c 0
 528.814453125 280 453.05078125 209.3671875 453.05078125 122.534179688 c 0
612.30859375 308 m 0
 685.872284062 308 745.263671875 259.61328125 745.263671875 176.1875 c 0
 745.263671875 76.9443359375 658.096278268 -8 556.58984375 -8 c 0
 483.026153438 -8 423.634765625 39.38671875 423.634765625 122.8125 c 0
 423.634765625 222.055664062 510.802159232 308 612.30859375 308 c 0
724.428710938 700 m 1
 761.428710938 700 l 1
 150 0 l 5
 113 0 l 1
 724.428710938 700 l 1
EndSplineSet
EndChar

StartChar: ampersand
Encoding: 38 38 80
Width: 675
VWidth: 0
Flags: HMW
LayerCount: 2
Fore
SplineSet
90 150 m 1
 123 150 l 1
 123 92 169 22 289 22 c 0
 456 22 608 196 687 296 c 1
 710 280 l 1
 613 160 473 -8 284 -8 c 0
 159 -8 90 61 90 150 c 1
251 526 m 1
 251 640 354 709 449 709 c 0
 554 709 583 640 583 584 c 1
 554 584 l 1
 554 630 527 678 447 678 c 0
 367 678 281 622 281 526 c 1
 251 526 l 1
334 349 m 6
 294 412 251 449 251 526 c 1
 281 526 l 1
 281 480 298 456 343 385 c 2
 645 0 l 1
 609 0 l 5
 334 349 l 6
583 584 m 1
 583 478 466 413 382 378 c 0
 299 343 123 300 123 150 c 1
 90 150 l 1
 90 317 277 367 354 397 c 0
 435 429 554 493 554 584 c 1
 583 584 l 1
EndSplineSet
EndChar

StartChar: question
Encoding: 63 63 81
Width: 557
VWidth: 0
Flags: HMW
LayerCount: 2
Fore
SplineSet
287 340 m 1
 330 340 l 1
 290 170 l 1
 272 170 l 1
 287 340 l 1
534 550 m 5
 571 550 l 5
 571 411 444 313 309 313 c 1
 287 340 l 1
 437 340 534 424 534 550 c 5
571 550 m 5
 534 550 l 5
 534 608 495 673 393 673 c 0
 316 673 240 637 193 567 c 1
 165 588 l 1
 211 658 300 708 399 708 c 0
 504 708 571 635 571 550 c 5
EndSplineSet
Refer: 54 46 N 1 0 0 1 100 0 2
EndChar

StartChar: parenleft
Encoding: 40 40 82
Width: 280
VWidth: 0
Flags: HMW
LayerCount: 2
Fore
SplineSet
358.53515625 780 m 5
 387.53515625 780 l 1
 263.343121412 586.853746799 166.841796875 411.28515625 166.841796875 139.28125 c 0
 166.841796875 26.5380859375 185.480755228 -99.2430711958 214.734375 -200 c 1
 189.734375 -200 l 1
 151.88435667 -93.97908645 128.28539393 22.0333240866 128.28539393 140.975180688 c 0
 128.28539393 406.71286092 225.405273438 592.403320312 358.53515625 780 c 5
EndSplineSet
EndChar

StartChar: asterisk
Encoding: 42 42 84
Width: 592
VWidth: 0
Flags: HMW
LayerCount: 2
Fore
SplineSet
579.006835938 579.524414062 m 1
 583.24609375 550.991210938 l 1
 386.458984375 495.48828125 l 1
 383.631835938 514.51171875 l 1
 579.006835938 579.524414062 l 1
485.537109375 356.05859375 m 1
 461.154296875 339.423828125 l 1
 378.91796875 500.12109375 l 1
 394.172851562 510.87890625 l 1
 485.537109375 356.05859375 l 1
254.19140625 337.424804688 m 5
 232.028320312 356.059570312 l 1
 377.991210938 510.877929688 l 1
 393.099609375 498.122070312 l 5
 254.19140625 337.424804688 l 5
203.064453125 550.9921875 m 1
 217.365234375 579.525390625 l 1
 389.811523438 514.510742188 l 1
 380.278320312 495.489257812 l 1
 203.064453125 550.9921875 l 1
404.428710938 700 m 1
 434.4296875 700 l 1
 395.044921875 505 l 1
 375.044921875 505 l 1
 404.428710938 700 l 1
EndSplineSet
EndChar

StartChar: less
Encoding: 60 60 85
Width: 640
VWidth: 0
Flags: HMW
LayerCount: 2
Fore
SplineSet
181.276367188 254.5 m 5
 583.81640625 50 l 1
 578.526367188 20 l 1
 129.08203125 250 l 1
 131.7265625 265 l 1
 662.282226562 495 l 1
 656.9921875 462 l 5
 181.276367188 254.5 l 5
EndSplineSet
EndChar

StartChar: bracketleft
Encoding: 91 91 87
Width: 300
VWidth: 0
Flags: HMW
LayerCount: 2
Fore
SplineSet
67.08984375 -215 m 1
 96.3798828125 -185 l 1
 247.379882812 -185 l 1
 242.08984375 -215 l 1
 67.08984375 -215 l 1
262.126953125 755 m 1
 243.416992188 785 l 1
 418.416992188 785 l 1
 413.126953125 755 l 1
 262.126953125 755 l 1
243.416992188 785 m 1
 274.416992188 785 l 1
 98.08984375 -215 l 1
 67.08984375 -215 l 1
 243.416992188 785 l 1
EndSplineSet
EndChar

StartChar: asciicircum
Encoding: 94 94 89
Width: 510
VWidth: 0
Flags: HMW
LayerCount: 2
Fore
SplineSet
365.192382812 710 m 1
 395.192382812 710 l 1
 396.666015625 690 l 1
 356.666015625 690 l 1
 365.192382812 710 l 1
373.666015625 690 m 5
 395.192382812 710 l 1
 526.110351562 460 l 1
 488.110351562 460 l 5
 373.666015625 690 l 5
365.192382812 710 m 1
 383.666015625 690 l 5
 188.110351562 460 l 5
 146.110351562 460 l 1
 365.192382812 710 l 1
EndSplineSet
EndChar

StartChar: grave
Encoding: 96 96 91
Width: 375
VWidth: 0
Flags: HMW
LayerCount: 2
Fore
SplineSet
224.90234375 680 m 5
 253.428710938 700 l 5
 395.216796875 540 l 5
 378.453125 530 l 5
 224.90234375 680 l 5
EndSplineSet
EndChar

StartChar: braceleft
Encoding: 123 123 92
Width: 321
VWidth: 0
Flags: HMW
LayerCount: 2
Fore
SplineSet
148.779296875 305 m 1
 143.490234375 275 l 1
 128.490234375 275 l 1
 133.779296875 305 l 1
 148.779296875 305 l 1
147.016601562 295 m 1
 196.016601562 295 206.852539062 209 191.159179688 120 c 1
 164.44921875 150 l 1
 177.849609375 226 156.7265625 265 128.490234375 275 c 1
 128.490234375 275 141.43359375 279.525390625 147.016601562 295 c 1
195.734375 -200 m 1
 221.024414062 -170 l 1
 261.024414062 -170 l 1
 255.734375 -200 l 1
 195.734375 -200 l 1
125.657226562 -70 m 5
 164.44921875 150 l 1
 191.159179688 120 l 1
 155.893554688 -80 l 1
 125.657226562 -70 l 5
221.024414062 -170 m 1
 195.734375 -200 l 1
 131.734375 -200 108.201171875 -169 125.657226562 -70 c 5
 155.893554688 -80 l 1
 146.01953125 -136 156.024414062 -170 216.024414062 -170 c 2
 221.024414062 -170 l 1
133.779296875 305 m 1
 165.54296875 315 200.419921875 354 213.8203125 430 c 1
 251.110351562 460 l 1
 235.416992188 371 194.252929688 285 145.252929688 285 c 1
 144.90625 300.611328125 133.779296875 305 133.779296875 305 c 1
368.53515625 780 m 1
 428.53515625 780 l 1
 423.245117188 750 l 1
 379.245117188 750 l 1
 368.53515625 780 l 1
250.849609375 640 m 1
 286.375976562 660 l 1
 251.110351562 460 l 1
 213.8203125 430 l 1
 250.849609375 640 l 1
379.245117188 750 m 1
 374.245117188 750 l 2
 324.245117188 750 297.131835938 721 286.375976562 660 c 1
 250.849609375 640 l 1
 268.305664062 739 304.53515625 780 368.53515625 780 c 1
 379.245117188 750 l 1
EndSplineSet
EndChar

StartChar: asciitilde
Encoding: 126 126 94
Width: 575
VWidth: 0
Flags: HMW
LayerCount: 2
Fore
SplineSet
143.033203125 176 m 1
 109.915039062 181 l 1
 109.149414062 188 109.560546875 196 111.147460938 205 c 0
 123.194335938 273.325195312 172.32421875 327 241.659179688 327 c 0
 300.659179688 327 332.782226562 288 354.139648438 256 c 0
 373.421875 227.108398438 397.618164062 202 435.618164062 202 c 0
 485.026367188 202 511.133789062 250.29296875 518.487304688 292 c 0
 519.8984375 300 521.190429688 313 518.954101562 323 c 1
 552.072265625 318 l 1
 552.661132812 310 552.8984375 300 551.134765625 290 c 0
 539.69921875 225.145507812 499.728515625 172 434.328125 172 c 0
 380.328125 172 351.147460938 205 328.7890625 237 c 0
 308.913085938 265.44921875 285.545898438 298 235.545898438 298 c 0
 182.397460938 298 151.326171875 245.71484375 142.913085938 198 c 0
 141.678710938 191 141.444335938 184 143.033203125 176 c 1
EndSplineSet
EndChar

StartChar: cent
Encoding: 162 162 96
Width: 473
VWidth: 0
Flags: HMW
LayerCount: 2
Fore
SplineSet
344.486328125 578 m 5
 365.243164062 578 l 5
 225.243164062 -112 l 1
 204.486328125 -112 l 1
 344.486328125 578 l 5
EndSplineSet
Refer: 31 99 N 1 0 0 1 0 0 2
EndChar

StartChar: sterling
Encoding: 163 163 97
Width: 522
VWidth: 0
Flags: HMW
LayerCount: 2
Fore
SplineSet
35 0 m 1
 111.171875 35 l 1
 494.171875 35 l 1
 488 0 l 1
 35 0 l 1
188.336914062 518 m 1
 230.690429688 520 l 1
 208.47265625 394 325.298828125 376 305.55078125 264 c 0
 288.623046875 168 172.580078125 60 91.5263671875 20 c 5
 35 0 l 1
 150.985351562 102 251.328125 172 266.844726562 260 c 0
 285.182617188 364 164.356445312 382 188.336914062 518 c 1
103.241210938 370 m 1
 463.241210938 370 l 1
 457.951171875 340 l 1
 97.951171875 340 l 1
 103.241210938 370 l 1
545.10546875 494 m 1
 553.977539062 567 525.962890625 669 409.962890625 669 c 0
 309.962890625 669 245.854492188 606 230.690429688 520 c 1
 188.336914062 518 l 1
 209.3203125 637 297.83984375 708 421.83984375 708 c 0
 564.83984375 708 588.916992188 578 579.810546875 498 c 1
 545.10546875 494 l 1
EndSplineSet
EndChar

StartChar: currency
Encoding: 164 164 98
Width: 565
VWidth: 0
Flags: HMW
LayerCount: 2
Fore
SplineSet
137.8984375 300 m 0
 117.091796875 182 186.6328125 100 299.6328125 100 c 4
 412.6328125 100 511.091796875 182 531.8984375 300 c 0
 552.705078125 418 483.163085938 500 370.163085938 500 c 4
 257.163085938 500 158.705078125 418 137.8984375 300 c 0
130.456054688 513 m 1
 164.745117188 543 l 1
 229.815429688 464 l 1
 194.702148438 435 l 1
 130.456054688 513 l 1
79.05078125 57 m 1
 55.3408203125 87 l 1
 147.09375 165 l 1
 171.98046875 136 l 1
 79.05078125 57 l 1
522.702148438 435 m 1
 498.815429688 464 l 1
 591.745117188 543 l 1
 615.456054688 513 l 1
 522.702148438 435 l 1
440.98046875 136 m 1
 475.09375 165 l 1
 540.340820312 87 l 1
 506.05078125 57 l 1
 440.98046875 136 l 1
96.8984375 300 m 4
 121.407226562 439 242.216796875 540 377.216796875 540 c 4
 512.216796875 540 597.407226562 439 572.8984375 300 c 0
 548.388671875 161 427.580078125 60 292.580078125 60 c 0
 157.580078125 60 72.388671875 161 96.8984375 300 c 4
EndSplineSet
EndChar

StartChar: brokenbar
Encoding: 166 166 100
Width: 244
VWidth: 0
Flags: HMW
LayerCount: 2
Fore
SplineSet
222.546875 695 m 1
 266.546875 695 l 5
 224.228515625 455 l 5
 180.228515625 455 l 1
 222.546875 695 l 1
187.200195312 245 m 5
 144.881835938 5 l 5
 100.881835938 5 l 1
 143.200195312 245 l 1
 187.200195312 245 l 5
EndSplineSet
EndChar

StartChar: section
Encoding: 167 167 101
Width: 408
VWidth: 0
Flags: HMW
LayerCount: 2
Fore
SplineSet
255.139648438 256 m 1
 305.139648438 256 380.956054688 306 391.536132812 366 c 1
 423.241210938 370 l 1
 412.837890625 311 351.495117188 241 252.495117188 241 c 1
 255.139648438 256 l 1
454.030273438 607 m 1
 439.5546875 644 401.079101562 681 334.079101562 681 c 0
 274.079101562 681 223.612304688 650 212.856445312 589 c 1
 182.856445312 589 l 1
 196.2578125 665 263.83984375 708 337.83984375 708 c 0
 410.83984375 708 464.315429688 671 483.322265625 620 c 1
 454.030273438 607 l 1
182.856445312 589 m 1
 212.856445312 589 l 1
 203.9296875 538.373046875 288.514648438 502.5703125 335.873046875 481.337890625 c 0
 396.421875 454.192382812 433.37890625 427.497070312 423.241210938 370 c 1
 391.536132812 366 l 1
 403.950195312 436.408203125 323.728515625 452.79296875 274.560546875 473.897460938 c 0
 215.673828125 499.173828125 173.932617188 538.387695312 182.856445312 589 c 1
143.359375 365 m 1
 179.064453125 369 l 1
 167.493164062 303.373046875 247.077148438 267.5703125 294.435546875 246.337890625 c 0
 354.985351562 219.192382812 391.060546875 187.497070312 380.922851562 130 c 1
 346.688476562 123 l 1
 359.103515625 193.408203125 282.467773438 218.79296875 233.30078125 239.897460938 c 0
 174.413085938 265.173828125 133.376953125 308.387695312 143.359375 365 c 1
92.451171875 133 m 1
 94.5771484375 77 135.703125 21 214.703125 21 c 4
 264.703125 21 332.58203125 43 346.688476562 123 c 1
 380.922851562 130 l 1
 366.287109375 47 307.58984375 -8 208.58984375 -8 c 0
 123.58984375 -8 62.4638671875 48 61.6884765625 123 c 1
 92.451171875 133 l 1
312.284179688 478 m 1
 250.521484375 468 189.8203125 430 179.064453125 369 c 1
 143.359375 365 l 1
 154.997070312 431 210.223632812 489 314.223632812 489 c 1
 312.284179688 478 l 1
EndSplineSet
EndChar

StartChar: copyright
Encoding: 169 169 103
Width: 800
VWidth: 0
Flags: HMW
LayerCount: 2
Fore
SplineSet
115 310 m 4
 115 112 247 15 400 15 c 4
 633 15 805 172 805 410 c 4
 805 588 673 685 520 685 c 4
 287 685 115 508 115 310 c 4
90 310 m 4
 90 519 276 710 520 710 c 4
 684 710 830 599 830 410 c 4
 830 161 644 -10 400 -10 c 4
 236 -10 90 101 90 310 c 4
EndSplineSet
Refer: 3 67 N 0.6 0 0 0.6 201 140 2
EndChar

StartChar: registered
Encoding: 174 174 104
Width: 800
VWidth: 0
Flags: HMW
LayerCount: 2
Fore
SplineSet
115 310 m 0
 115 112 247 15 400 15 c 0
 633 15 805 172 805 410 c 0
 805 588 673 685 520 685 c 0
 287 685 115 508 115 310 c 0
90 310 m 0
 90 519 276 710 520 710 c 0
 684 710 830 599 830 410 c 0
 830 161 644 -10 400 -10 c 0
 236 -10 90 101 90 310 c 0
EndSplineSet
Refer: 13 82 S 0.6 0 0 0.6 286 150 2
EndChar

StartChar: logicalnot
Encoding: 172 172 110
Width: 620
VWidth: 0
Flags: HMW
LayerCount: 2
Fore
SplineSet
633 350 m 5
 663 350 l 5
 613 180 l 5
 583 180 l 5
 633 350 l 5
EndSplineSet
Refer: 62 45 N 2.45 0 0 1 52.75 100 2
EndChar

StartChar: plusminus
Encoding: 177 177 113
Width: 615
VWidth: 0
Flags: HMW
LayerCount: 2
Fore
SplineSet
79.98828125 85 m 1
 84.3955078125 110 l 5
 569.395507812 110 l 5
 564.98828125 85 l 1
 79.98828125 85 l 1
129.536132812 366 m 1
 133.767578125 390 l 1
 618.767578125 390 l 1
 614.536132812 366 l 1
 129.536132812 366 l 1
395.506835938 570 m 1
 420.506835938 570 l 1
 351.739257812 180 l 1
 326.739257812 180 l 1
 395.506835938 570 l 1
EndSplineSet
EndChar

StartChar: acute
Encoding: 180 180 116
Width: 375
VWidth: 0
Flags: HMW
LayerCount: 2
Fore
SplineSet
398.138671875 670 m 1
 191.690429688 520 l 1
 178.453125 530 l 1
 376.666015625 690 l 1
 398.138671875 670 l 1
EndSplineSet
EndChar

StartChar: paragraph
Encoding: 182 182 118
Width: 538
VWidth: 0
Flags: HMW
LayerCount: 2
Fore
SplineSet
407.020507812 675 m 1
 411.428710938 700 l 1
 591.428710938 700 l 1
 587.020507812 675 l 1
 407.020507812 675 l 1
576.428710938 700 m 1
 601.428710938 700 l 1
 439.208007812 -220 l 1
 414.208007812 -220 l 1
 576.428710938 700 l 1
411.428710938 700 m 1
 436.428710938 700 l 1
 274.208007812 -220 l 1
 249.208007812 -220 l 1
 411.428710938 700 l 1
335.608398438 270 m 1
 210.608398438 270 121.008789062 346 145.518554688 485 c 0
 170.028320312 624 286.428710938 700 411.428710938 700 c 1
 335.608398438 270 l 1
EndSplineSet
EndChar

StartChar: cedilla
Encoding: 184 184 121
Width: 350
Flags: HMW
LayerCount: 2
Fore
SplineSet
196 60 m 1
 227 60 l 1
 166.799804688 -63.7998046875 l 5
 120.799804688 -97.7998046875 l 1
 196 60 l 1
265.200195312 -126 m 1
 236.400390625 -126 l 1
 236.400390625 -92.400390625 212.200195312 -76 178.200195312 -76 c 0
 168 -76 143.400390625 -81.7998046875 120.799804688 -97.7998046875 c 1
 150.799804688 -68.2001953125 l 1
 176.400390625 -52.2001953125 188.799804688 -52 202.200195312 -52 c 0
 235.200195312 -52 265.200195312 -86.599609375 265.200195312 -126 c 1
265.200195312 -126 m 1
 265.200195312 -187.400390625 223.200195312 -220 168.200195312 -220 c 0
 130.799804688 -220 106.400390625 -209.799804688 78.7998046875 -181.799804688 c 1
 99 -162.400390625 l 1
 117.599609375 -178.400390625 132 -196 168.200195312 -196 c 0
 209.200195312 -196 236.400390625 -169.599609375 236.400390625 -126 c 1
 265.200195312 -126 l 1
EndSplineSet
EndChar

StartChar: multiply
Encoding: 215 215 123
Width: 596
VWidth: 0
Flags: HMW
LayerCount: 2
Fore
SplineSet
324.137695312 273 m 1
 369.137695312 273 l 1
 361.908203125 232 l 1
 316.908203125 232 l 1
 324.137695312 273 l 1
334.436523438 235 m 1
 358.844726562 256 l 5
 524.4609375 61 l 5
 494.171875 35 l 1
 334.436523438 235 l 1
156.465820312 445 m 1
 186.754882812 471 l 5
 346.490234375 271 l 5
 322.08203125 250 l 1
 156.465820312 445 l 1
362.08203125 250 m 1
 341.666015625 276 l 1
 571.931640625 476 l 1
 596.465820312 445 l 1
 362.08203125 250 l 1
114.171875 35 m 1
 89.6376953125 66 l 1
 324.021484375 261 l 1
 344.436523438 235 l 1
 114.171875 35 l 1
EndSplineSet
EndChar

StartChar: Thorn
Encoding: 222 222 125
Width: 550
VWidth: 0
Flags: HMW
LayerCount: 2
Fore
SplineSet
294.685546875 140 m 1
 300.857421875 175 l 1
 410.857421875 175 504.260742188 234 524.71484375 350 c 0
 545.16796875 466 472.395507812 524 362.395507812 524 c 1
 368.743164062 560 l 1
 503.743164062 560 582.4609375 479 559.71484375 350 c 0
 536.96875 221 429.685546875 140 294.685546875 140 c 1
121.685546875 140 m 1
 127.857421875 175 l 1
 300.857421875 175 l 1
 294.685546875 140 l 1
 121.685546875 140 l 1
189.395507812 524 m 1
 195.743164062 560 l 1
 368.743164062 560 l 1
 362.395507812 524 l 1
 189.395507812 524 l 1
203.428710938 700 m 1
 234.428710938 700 l 5
 111 0 l 5
 80 0 l 1
 203.428710938 700 l 1
EndSplineSet
EndChar

StartChar: circumflex
Encoding: 710 710 128
Width: 480
VWidth: 0
Flags: HMW
LayerCount: 2
Fore
SplineSet
355.428710938 702 m 5
 368.71875 730 l 1
 504.033203125 590 l 1
 482.506835938 572 l 5
 355.428710938 702 l 5
368.71875 730 m 1
 373.428710938 700 l 1
 200.506835938 570 l 1
 184.033203125 590 l 1
 368.71875 730 l 1
EndSplineSet
EndChar

StartChar: ogonek
Encoding: 731 731 129
Width: 260
VWidth: 0
Flags: HMW
LayerCount: 2
Fore
SplineSet
220 -157 m 1
 237 -180 l 1
 215 -203 182 -220 139 -220 c 0
 55 -220 16 -169 16 -120 c 1
 48 -115 l 1
 48 -161 86 -194 141 -194 c 0
 177 -194 204 -176 220 -157 c 1
48 -115 m 1
 16 -120 l 1
 16 -51 77.7509765625 -11 147.750976562 25 c 1
 156.750976562 8 l 5
 114.690429688 -14.27734375 48.296875 -57.6220703125 48 -115 c 1
EndSplineSet
EndChar

StartChar: tilde
Encoding: 732 732 130
Width: 530
VWidth: 0
Flags: HMW
LayerCount: 2
Fore
SplineSet
190.204101562 625 m 1
 208.90625 674.352539062 252.157226562 707 313.663085938 707 c 0
 352.663085938 707 381.743164062 667.208007812 392.317382812 654 c 0
 411.780273438 629.690429688 433.146484375 619 451.146484375 619 c 0
 490.5546875 619 520.956054688 663.29296875 546.546875 695 c 1
 570.784179688 685 l 1
 548.30078125 648.231445312 503.02734375 592 443.385742188 592 c 0
 409.385742188 592 380.857421875 614.553710938 365.615234375 633 c 4
 347.65625 654.733398438 327.549804688 678 297.549804688 678 c 0
 248.911132812 678 216.856445312 628.698242188 214.264648438 614 c 1
 190.204101562 625 l 1
EndSplineSet
EndChar

StartChar: ring
Encoding: 730 730 131
Width: 278
VWidth: 0
Flags: HMW
LayerCount: 2
Fore
SplineSet
170 785 m 4
 170 844.5 211.5 885 269 885 c 4
 326.5 885 368 844.5 368 785 c 4
 368 725.5 326.5 685 269 685 c 4
 211.5 685 170 725.5 170 785 c 4
200.5 785 m 4
 200.5 742 229 712.5 269 712.5 c 4
 309 712.5 337.5 742 337.5 785 c 4
 337.5 828 309 857.5 269 857.5 c 4
 229 857.5 200.5 828 200.5 785 c 4
EndSplineSet
EndChar

StartChar: quoteright
Encoding: 8217 8217 138
Width: 295
VWidth: 0
Flags: HMW
LayerCount: 2
Fore
SplineSet
311.428710938 700 m 1
 358.428710938 700 l 1
 199.874023438 470 l 1
 177.874023438 470 l 1
 311.428710938 700 l 1
EndSplineSet
EndChar

StartChar: perthousand
Encoding: 8240 8240 143
Width: 1141
VWidth: 0
Flags: HMW
LayerCount: 2
Fore
SplineSet
845.44921875 150 m 4
 832.224609375 75 874.526367188 20 951.526367188 20 c 4
 1028.52636719 20 1090.22460938 75 1103.44921875 150 c 4
 1116.67382812 225 1074.37109375 280 997.37109375 280 c 4
 920.37109375 280 858.673828125 225 845.44921875 150 c 4
816.44921875 150 m 4
 832.142578125 239 907.30859375 308 1002.30859375 308 c 4
 1097.30859375 308 1148.14257812 239 1132.44921875 150 c 4
 1116.75585938 61 1041.58984375 -8 946.58984375 -8 c 4
 851.58984375 -8 800.755859375 61 816.44921875 150 c 4
160.979492188 550 m 4
 147.754882812 475 190.057617188 420 267.057617188 420 c 4
 344.057617188 420 405.754882812 475 418.979492188 550 c 4
 432.204101562 625 389.90234375 680 312.90234375 680 c 4
 235.90234375 680 174.204101562 625 160.979492188 550 c 4
455.44921875 150 m 4
 442.224609375 75 484.526367188 20 561.526367188 20 c 4
 638.526367188 20 700.224609375 75 713.44921875 150 c 4
 726.673828125 225 684.37109375 280 607.37109375 280 c 4
 530.37109375 280 468.673828125 225 455.44921875 150 c 4
426.44921875 150 m 4
 442.142578125 239 517.30859375 308 612.30859375 308 c 4
 707.30859375 308 758.142578125 239 742.44921875 150 c 4
 726.755859375 61 651.58984375 -8 556.58984375 -8 c 4
 461.58984375 -8 410.755859375 61 426.44921875 150 c 4
131.979492188 550 m 4
 147.672851562 639 222.83984375 708 317.83984375 708 c 4
 412.83984375 708 463.672851562 639 447.979492188 550 c 4
 432.287109375 461 357.120117188 392 262.120117188 392 c 4
 167.120117188 392 116.287109375 461 131.979492188 550 c 4
726.428710938 700 m 5
 761.428710938 700 l 5
 148 0 l 5
 113 0 l 5
 726.428710938 700 l 5
EndSplineSet
EndChar

StartChar: guilsinglleft
Encoding: 8249 8249 144
Width: 350
VWidth: 0
Flags: HMW
LayerCount: 2
Fore
SplineSet
111.200195312 242 m 5
 84.9638671875 255 l 1
 334.63671875 480 l 1
 353.228515625 452 l 5
 111.200195312 242 l 5
84.9638671875 255 m 1
 110.490234375 272 l 1
 276.698242188 52 l 1
 255.290039062 30 l 1
 84.9638671875 255 l 1
EndSplineSet
EndChar

StartChar: uni2031
Encoding: 8241 8241 146
Width: 1531
VWidth: 0
Flags: HMW
LayerCount: 2
Fore
SplineSet
1235.44921875 150 m 0
 1222.22460938 75 1264.52636719 20 1341.52636719 20 c 0
 1418.52636719 20 1480.22460938 75 1493.44921875 150 c 0
 1506.67382812 225 1464.37109375 280 1387.37109375 280 c 0
 1310.37109375 280 1248.67382812 225 1235.44921875 150 c 0
1206.44921875 150 m 0
 1222.14257812 239 1297.30859375 308 1392.30859375 308 c 0
 1487.30859375 308 1538.14257812 239 1522.44921875 150 c 0
 1506.75585938 61 1431.58984375 -8 1336.58984375 -8 c 0
 1241.58984375 -8 1190.75585938 61 1206.44921875 150 c 0
845.44921875 150 m 0
 832.224609375 75 874.526367188 20 951.526367188 20 c 0
 1028.52636719 20 1090.22460938 75 1103.44921875 150 c 0
 1116.67382812 225 1074.37109375 280 997.37109375 280 c 0
 920.37109375 280 858.673828125 225 845.44921875 150 c 0
816.44921875 150 m 0
 832.142578125 239 907.30859375 308 1002.30859375 308 c 0
 1097.30859375 308 1148.14257812 239 1132.44921875 150 c 0
 1116.75585938 61 1041.58984375 -8 946.58984375 -8 c 0
 851.58984375 -8 800.755859375 61 816.44921875 150 c 0
160.979492188 550 m 0
 147.754882812 475 190.057617188 420 267.057617188 420 c 0
 344.057617188 420 405.754882812 475 418.979492188 550 c 0
 432.204101562 625 389.90234375 680 312.90234375 680 c 0
 235.90234375 680 174.204101562 625 160.979492188 550 c 0
455.44921875 150 m 0
 442.224609375 75 484.526367188 20 561.526367188 20 c 0
 638.526367188 20 700.224609375 75 713.44921875 150 c 0
 726.673828125 225 684.37109375 280 607.37109375 280 c 0
 530.37109375 280 468.673828125 225 455.44921875 150 c 0
426.44921875 150 m 0
 442.142578125 239 517.30859375 308 612.30859375 308 c 0
 707.30859375 308 758.142578125 239 742.44921875 150 c 0
 726.755859375 61 651.58984375 -8 556.58984375 -8 c 0
 461.58984375 -8 410.755859375 61 426.44921875 150 c 0
131.979492188 550 m 0
 147.672851562 639 222.83984375 708 317.83984375 708 c 0
 412.83984375 708 463.672851562 639 447.979492188 550 c 0
 432.287109375 461 357.120117188 392 262.120117188 392 c 0
 167.120117188 392 116.287109375 461 131.979492188 550 c 0
726.428710938 700 m 1
 761.428710938 700 l 1
 148 0 l 1
 113 0 l 1
 726.428710938 700 l 1
EndSplineSet
EndChar

StartChar: Euro
Encoding: 8364 8364 148
Width: 700
VWidth: 0
Flags: HMW
LayerCount: 2
Fore
SplineSet
156.71484375 350 m 0
 122.68359375 157 195.526367188 20 343.526367188 20 c 0
 400.10546875 20 455.201171875 34.859375 503.126953125 74.4482421875 c 1
 495.400390625 30.6279296875 l 1
 445.799804688 4.4609375 392.083984375 -10 338.236328125 -10 c 0
 164.236328125 -10 84.8623046875 141 121.71484375 350 c 0
 158.56640625 559 291.192382812 710 465.192382812 710 c 0
 519.0390625 710 567.655273438 695.5390625 608.028320312 669.372070312 c 1
 600.301757812 625.551757812 l 1
 566.336914062 665.140625 516.481445312 680 459.90234375 680 c 0
 301.90234375 680 190.745117188 543 156.71484375 350 c 0
EndSplineSet
Refer: 62 45 S 2.375 0 0 0.64 -66.875 159 2
Refer: 62 45 N 2.505 0 0 0.64 -27.525 279 2
EndChar

StartChar: fraction
Encoding: 8260 8260 149
Width: 705
VWidth: 0
Flags: HMW
LayerCount: 2
Fore
SplineSet
743.428710938 700 m 1
 768.428710938 700 l 1
 85 0 l 5
 60 0 l 1
 743.428710938 700 l 1
EndSplineSet
EndChar

StartChar: AE
Encoding: 198 198 191
Width: 975
VWidth: 0
Flags: HMW
LayerCount: 2
Fore
SplineSet
227 246 m 5
 227 275 l 1
 537 275 l 1
 537 246 l 5
 227 246 l 5
495 700 m 1
 530 700 l 1
 65 0 l 1
 25 0 l 1
 495 700 l 1
537 0 m 1
 537 27 l 1
 900 27 l 1
 900 0 l 1
 537 0 l 1
525 674 m 1
 525 700 l 1
 900 700 l 1
 900 674 l 1
 525 674 l 1
537 366 m 1
 537 394 l 1
 880 394 l 1
 880 366 l 1
 537 366 l 1
515 700 m 1
 545 700 l 1
 545 0 l 1
 515 0 l 1
 515 700 l 1
EndSplineSet
EndChar

StartChar: germandbls
Encoding: 223 223 219
Width: 570
VWidth: 0
Flags: HMW
LayerCount: 2
Fore
SplineSet
196.854492188 606 m 1
 226.854492188 606 l 1
 120 0 l 1
 90 0 l 1
 196.854492188 606 l 1
329.0546875 437 m 5
 332.228515625 455 l 1
 442.228515625 455 533.926757812 510 549.090820312 596 c 0
 567.78125 702 520.65625 758 410.65625 758 c 0
 320.65625 758 243.78125 702 226.854492188 606 c 1
 196.854492188 606 l 1
 216.07421875 715 310.9453125 788 415.9453125 788 c 0
 550.9453125 788 601.07421875 715 581.854492188 606 c 0
 564.397460938 507 484.0546875 437 329.0546875 437 c 5
275.526367188 20 m 1
 395.526367188 20 499.162109375 103 521.37890625 229 c 0
 543.595703125 355 437.8203125 430 327.8203125 430 c 1
 330.994140625 448 l 1
 485.994140625 448 579.182617188 364 554.673828125 225 c 0
 530.1640625 86 405.236328125 -10 270.236328125 -10 c 1
 275.526367188 20 l 1
EndSplineSet
EndChar

StartChar: ae
Encoding: 230 230 220
Width: 821
VWidth: 0
Flags: HMW
LayerCount: 2
Fore
SplineSet
428.1875 330 m 1
 456.424804688 320 l 5
 421.159179688 120 l 1
 398.211914062 160 l 1
 428.1875 330 l 1
154.475585938 377 m 1
 143.059570312 403 l 1
 191.526367188 434 247.874023438 470 330.874023438 470 c 0
 440.874023438 470 468.880859375 419 453.1875 330 c 1
 428.1875 330 l 1
 441.588867188 406 405.583984375 440 325.583984375 440 c 0
 249.583984375 440 202.293945312 410 154.475585938 377 c 1
109.803710938 135 m 0
 96.4033203125 59 136.173828125 18 216.173828125 18 c 0
 296.173828125 18 383.047851562 74 398.211914062 160 c 1
 412.685546875 140 l 1
 398.755859375 61 311.236328125 -10 206.236328125 -10 c 0
 131.236328125 -10 60.4658203125 31 78.8037109375 135 c 0
 95.908203125 232 194.547851562 281 285.547851562 281 c 0
 363.547851562 281 413.787109375 254 433.555664062 230 c 1
 428.618164062 202 l 1
 386.7890625 237 338.610351562 253 280.610351562 253 c 0
 196.610351562 253 123.205078125 211 109.803710938 135 c 0
410.555664062 230 m 1
 437.608398438 270 l 1
 447.08203125 250 l 1
 443.555664062 230 l 1
 410.555664062 230 l 1
440.321289062 223 m 1
 445.610351562 253 l 1
 814.610351562 253 l 1
 819.321289062 223 l 1
 440.321289062 223 l 1
819.321289062 223 m 1
 793.08203125 250 l 1
 810.185546875 347 760.231445312 438 658.231445312 438 c 0
 558.231445312 438 464.008789062 346 447.08203125 250 c 1
 410.555664062 230 l 1
 435.064453125 369 543.521484375 468 663.521484375 468 c 0
 780.521484375 468 847.828125 379 822.260742188 234 c 0
 821.908203125 232 821.202148438 228 819.321289062 223 c 1
410.555664062 230 m 1
 441.555664062 230 l 1
 421.1015625 114 487.055664062 23 587.055664062 23 c 0
 682.055664062 23 736.75390625 78 775.451171875 133 c 1
 798.629882812 117 l 1
 749.111328125 46 678.58984375 -8 579.58984375 -8 c 0
 469.58984375 -8 386.045898438 91 410.555664062 230 c 1
EndSplineSet
EndChar

StartChar: dotlessi
Encoding: 305 305 227
Width: 260
VWidth: 0
Flags: HMW
LayerCount: 2
Fore
SplineSet
191.110351562 460 m 5
 221.110351562 460 l 1
 140 0 l 1
 110 0 l 5
 191.110351562 460 l 5
EndSplineSet
EndChar

StartChar: kgreenlandic
Encoding: 312 312 228
Width: 400
VWidth: 0
Flags: HMW
LayerCount: 2
Fore
SplineSet
155.608398438 270 m 1
 192.608398438 270 l 1
 385 0 l 1
 347 0 l 1
 155.608398438 270 l 1
398.110351562 460 m 5
 446.110351562 460 l 1
 192.608398438 270 l 1
 144.608398438 270 l 5
 398.110351562 460 l 5
162.874023438 470 m 1
 192.874023438 470 l 1
 110 0 l 1
 80 0 l 1
 162.874023438 470 l 1
EndSplineSet
EndChar

StartChar: thorn
Encoding: 254 254 243
Width: 550
VWidth: 0
Flags: HMW
LayerCount: 2
Fore
SplineSet
247.53515625 780 m 1
 71.2080078125 -220 l 5
 41.2080078125 -220 l 5
 217.53515625 780 l 1
 247.53515625 780 l 1
560.555664062 230 m 0
 534.634765625 83 420.58984375 -8 295.58984375 -8 c 0
 172.58984375 -8 111.80859375 101 134.555664062 230 c 0
 157.301757812 359 256.521484375 468 379.521484375 468 c 0
 504.521484375 468 586.475585938 377 560.555664062 230 c 0
529.555664062 230 m 0
 553.536132812 366 467.231445312 438 377.231445312 438 c 0
 267.231445312 438 171.008789062 346 150.555664062 230 c 0
 130.1015625 114 193.87890625 22 303.87890625 22 c 0
 393.87890625 22 505.575195312 94 529.555664062 230 c 0
EndSplineSet
EndChar

StartChar: breve
Encoding: 728 728 247
Width: 546
VWidth: 0
Flags: HMW
LayerCount: 2
Fore
SplineSet
264.877929688 850 m 1
 295.877929688 850 l 1
 286.00390625 794 323.482421875 740 403.482421875 740 c 0
 483.482421875 740 540.00390625 794 549.877929688 850 c 5
 580.877929688 850 l 1
 568.7109375 781 503.192382812 710 398.192382812 710 c 0
 293.192382812 710 252.7109375 781 264.877929688 850 c 1
EndSplineSet
EndChar

StartChar: eth
Encoding: 240 240 302
Width: 556
VWidth: 0
Flags: HMW
LayerCount: 2
Fore
SplineSet
359.428710938 700 m 1
 517.23828125 387 l 1
 489.123046875 375 l 1
 324.428710938 700 l 1
 359.428710938 700 l 1
541.555664062 230 m 0
 516.1640625 86 401.58984375 -8 276.58984375 -8 c 0
 151.58984375 -8 70.1640625 86 95.5556640625 230 c 0
 120.064453125 369 235.462890625 462 343.462890625 462 c 0
 416.783203125 462 470.818359375 430.188476562 479.884765625 402.0078125 c 1
 505.892578125 386.671875 500.766601562 417.928710938 517.23828125 387 c 0
 538.334960938 347.388671875 551.565429688 286.768554688 541.555664062 230 c 0
510.555664062 230 m 0
 532.772460938 356 444.702148438 435 354.702148438 435 c 0
 239.702148438 435 148.008789062 346 127.555664062 230 c 0
 107.1015625 114 161.87890625 22 281.87890625 22 c 0
 391.87890625 22 488.337890625 104 510.555664062 230 c 0
EndSplineSet
Refer: 62 45 S 1.5 0 0 1 187.5 320 2
EndChar

StartChar: OE
Encoding: 338 338 308
Width: 950
VWidth: 0
Flags: HW
LayerCount: 2
Fore
SplineSet
646.428710938 700 m 5
 641.138671875 670 l 5
 493.138671875 670 l 5
 498.428710938 700 l 5
 646.428710938 700 l 5
528.290039062 30 m 5
 523 0 l 5
 375 0 l 5
 380.290039062 30 l 5
 528.290039062 30 l 5
493.138671875 670 m 5
 305.138671875 670 168.626953125 548 133.71484375 350 c 4
 100.565429688 162 192.290039062 30 380.290039062 30 c 5
 375 0 l 5
 171 0 64.8623046875 141 101.71484375 350 c 4
 138.56640625 559 294.428710938 700 498.428710938 700 c 5
 493.138671875 670 l 5
537 0 m 5
 542.11328125 29 l 5
 880.11328125 29 l 5
 875 0 l 5
 537 0 l 5
655.315429688 671 m 5
 660.428710938 700 l 5
 998.428710938 700 l 5
 993.315429688 671 l 5
 655.315429688 671 l 5
601.536132812 366 m 5
 606.47265625 394 l 5
 924.47265625 394 l 5
 919.536132812 366 l 5
 601.536132812 366 l 5
638.428710938 700 m 5
 668.428710938 700 l 5
 545 0 l 5
 515 0 l 5
 638.428710938 700 l 5
EndSplineSet
EndChar

StartChar: oe
Encoding: 339 339 309
Width: 895
VWidth: 0
Flags: HW
LayerCount: 2
Fore
SplineSet
80.5556640625 230 m 0
 105.416992188 371 214.521484375 468 339.521484375 468 c 0
 464.521484375 468 533.416992188 371 508.555664062 230 c 4
 483.693359375 89 380.58984375 -8 255.58984375 -8 c 0
 130.58984375 -8 55.693359375 89 80.5556640625 230 c 0
110.555664062 230 m 0
 88.6904296875 106 153.87890625 22 260.87890625 22 c 0
 367.87890625 22 462.690429688 106 484.555664062 230 c 0
 506.419921875 354 441.231445312 438 334.231445312 438 c 0
 227.231445312 438 132.419921875 354 110.555664062 230 c 0
489.555664062 230 m 1
 511.608398438 270 l 1
 521.08203125 250 l 1
 517.555664062 230 l 1
 489.555664062 230 l 1
514.321289062 223 m 1
 519.610351562 253 l 1
 888.610351562 253 l 1
 893.321289062 223 l 1
 514.321289062 223 l 1
893.321289062 223 m 1
 867.08203125 250 l 1
 884.185546875 347 834.231445312 438 732.231445312 438 c 0
 632.231445312 438 538.008789062 346 521.08203125 250 c 1
 489.555664062 230 l 1
 514.064453125 369 617.521484375 468 737.521484375 468 c 0
 854.521484375 468 921.828125 379 896.260742188 234 c 0
 895.908203125 232 895.202148438 228 893.321289062 223 c 1
489.555664062 230 m 1
 515.555664062 230 l 1
 495.1015625 114 561.055664062 23 661.055664062 23 c 0
 756.055664062 23 810.75390625 78 849.451171875 133 c 1
 872.629882812 117 l 1
 823.111328125 46 752.58984375 -8 653.58984375 -8 c 0
 543.58984375 -8 465.045898438 91 489.555664062 230 c 1
EndSplineSet
EndChar

StartChar: a.alt
Encoding: 65536 -1 311
Width: 455
VWidth: 0
Flags: HW
LayerCount: 2
Fore
SplineSet
413.1875 330 m 1
 443.1875 330 l 1
 385 0 l 1
 355 0 l 1
 413.1875 330 l 1
139.475585938 377 m 1
 128.059570312 403 l 1
 176.526367188 434 232.874023438 470 315.874023438 470 c 0
 425.874023438 470 458.880859375 419 443.1875 330 c 1
 413.1875 330 l 1
 426.588867188 406 395.583984375 440 315.583984375 440 c 0
 239.583984375 440 187.293945312 410 139.475585938 377 c 1
92.244140625 113.547851562 m 0
 92.244140625 55.1748046875 131.414350407 18 201.173828125 18 c 0
 281.173828125 18 368.047851562 74 383.211914062 160 c 1
 384.922851562 130 l 5
 370.993164062 51 296.236328125 -10 191.236328125 -10 c 0
 124.37410216 -10 60.873046875 32.5849609375 60.873046875 113.34375 c 0
 60.873046875 223.251953125 171.205960158 281 270.547851562 281 c 0
 348.547851562 281 398.787109375 254 418.555664062 230 c 1
 413.618164062 202 l 1
 371.7890625 237 323.610351562 253 265.610351562 253 c 0
 173.621328116 253 92.244140625 199.885742188 92.244140625 113.547851562 c 0
EndSplineSet
EndChar
